<?xml version="1.0" encoding="UTF-8" standalone="no"?>
<svg
   xmlns:dc="http://purl.org/dc/elements/1.1/"
   xmlns:cc="http://creativecommons.org/ns#"
   xmlns:rdf="http://www.w3.org/1999/02/22-rdf-syntax-ns#"
   xmlns:svg="http://www.w3.org/2000/svg"
   xmlns="http://www.w3.org/2000/svg"
   viewBox="0 0 822.66669 490.66666"
   height="490.66666"
   width="822.66669"
   xml:space="preserve"
   id="svg2"
   version="1.1"><metadata
     id="metadata8"><rdf:RDF><cc:Work
         rdf:about=""><dc:format>image/svg+xml</dc:format><dc:type
           rdf:resource="http://purl.org/dc/dcmitype/StillImage" /></cc:Work></rdf:RDF></metadata><defs
     id="defs6" /><g
     transform="matrix(1.3333333,0,0,-1.3333333,0,490.66667)"
     id="g10"><g
       id="g12"><path
         id="path14"
         style="fill:#ffffff;fill-opacity:1;fill-rule:nonzero;stroke:none"
         d="M 0,368 H 617 V 0 H 0 Z" /></g><g
       transform="translate(148,182)"
       id="g16"><path
         id="path18"
         style="fill:#000000;fill-opacity:1;fill-rule:nonzero;stroke:none"
         d="M 0,100 H 100 V 0 H 0 Z" /></g><g
       transform="translate(154,190)"
       id="g20"><path
         id="path22"
         style="fill:#ffdcdc;fill-opacity:1;fill-rule:nonzero;stroke:none"
         d="M 0,100 H 100 V 0 H 0 Z" /></g><g
       transform="translate(167,226.21094)"
       id="g24"><path
         id="path26"
         style="fill:#000000;fill-opacity:1;fill-rule:nonzero;stroke:none"
         d="M 0,-8.210938 Z M 10.917969,2.667969 h 7.304687 l -3.59375,11.328125 z m 0.371093,17.910156 h 6.796876 L 28.28125,-8.210938 h -6.523438 l -1.855468,5.917969 H 9.296875 L 7.304688,-8.210938 H 1.015625 Z m 3.359376,0 z" /></g><g
       transform="translate(167,226.21094)"
       id="g28"><text
         id="text32"
         style="font-variant:normal;font-weight:normal;font-size:40px;font-family:Arial;-inkscape-font-specification:Arial;writing-mode:lr-tb;fill:#000000;fill-opacity:1;fill-rule:nonzero;stroke:none"
         transform="matrix(1,0,0,-1,0,-8.210938)"><tspan
           id="tspan30"
           y="0"
           x="0">A</tspan></text>
</g><g
       transform="translate(217,226.25)"
       id="g34"><path
         id="path36"
         style="fill:#000000;fill-opacity:1;fill-rule:nonzero;stroke:none"
         d="M 0,-8.25 Z M 3.046875,20.5 H 23.457031 V 15.441406 H 9.023438 V 8.820312 h 12.636718 v -5 H 9.023438 V -8.25 H 3.046875 Z" /></g><g
       transform="translate(217,226.25)"
       id="g38"><text
         id="text42"
         style="font-variant:normal;font-weight:normal;font-size:40px;font-family:Arial;-inkscape-font-specification:Arial;writing-mode:lr-tb;fill:#000000;fill-opacity:1;fill-rule:nonzero;stroke:none"
         transform="matrix(1,0,0,-1,0,-8.25)"><tspan
           id="tspan40"
           y="0"
           x="0">F</tspan></text>
</g><g
       transform="translate(194,226.21094)"
       id="g44"><path
         id="path46"
         style="fill:#000000;fill-opacity:1;fill-rule:nonzero;stroke:none"
         d="M 0,-8.210938 Z M 3.046875,20.578125 H 9.0625 V -3.035156 H 23.320312 V -8.210938 H 3.046875 Z" /></g><g
       transform="translate(194,226.21094)"
       id="g48"><text
         id="text52"
         style="font-variant:normal;font-weight:normal;font-size:40px;font-family:Arial;-inkscape-font-specification:Arial;writing-mode:lr-tb;fill:#000000;fill-opacity:1;fill-rule:nonzero;stroke:none"
         transform="matrix(1,0,0,-1,0,-8.210938)"><tspan
           id="tspan50"
           y="0"
           x="0">L</tspan></text>
</g><g
       transform="translate(220,248)"
       id="g54"><path
         id="path56"
         style="fill:#000000;fill-opacity:1;fill-rule:nonzero;stroke:none"
         d="M 0,6 H 6 V 0 H 0 Z" /></g></g></svg>